<?xml version="1.0" encoding="UTF-8"?>
<svg id="Layer_2" data-name="Layer 2" xmlns="http://www.w3.org/2000/svg" viewBox="0 0 117.79 35.02">
  <g id="Layer_1-2" data-name="Layer 1">
    <g>
      <g>
        <path d="M18.14,10.63c-.3-.1-.54-.28-.7-.54-.16-.26-.24-.58-.24-.96v-3.91c0-.39.08-.75.24-1.07.16-.32.4-.58.7-.78.3-.2.66-.33,1.08-.39,1.83-.28,2.75-.41,4.59-.65.18-.02.32,0,.42.1.1.09.15.22.15.39v.87c0,.17-.05.32-.15.43-.1.11-.24.18-.42.21-1.49.2-2.23.3-3.72.52-.22.03-.39.11-.5.22-.11.11-.17.28-.17.49v2.52c0,.19.06.33.17.42.11.08.27.11.47.08,1.49-.22,2.24-.32,3.74-.52.18-.02.32,0,.42.1.1.09.15.21.15.38v.88c0,.17-.05.31-.15.43-.1.12-.24.19-.42.21-1.83.24-2.74.37-4.57.65-.44.07-.81.05-1.11-.06Z"/>
        <path d="M27.83,9.31c-.31-.11-.54-.3-.7-.57-.16-.27-.23-.59-.23-.96v-3.94c0-.39.08-.74.24-1.05.16-.31.39-.56.69-.74.3-.19.66-.31,1.09-.36,1.47-.17,2.21-.25,3.69-.39.42-.04.78,0,1.08.13.3.13.53.33.69.59.16.27.24.6.24.99v3.94c0,.36-.08.69-.24,1-.16.3-.39.55-.7.73-.31.18-.67.29-1.08.33-1.47.15-2.2.22-3.67.39-.42.05-.79.02-1.1-.1ZM32.25,6.93c.09-.1.13-.27.13-.49v-2.52c0-.22-.05-.38-.15-.47-.1-.09-.26-.12-.48-.1-.8.08-1.19.12-1.99.21-.21.02-.36.09-.47.21-.1.12-.16.28-.16.49v2.52c0,.21.05.36.15.45.1.09.25.12.45.1.83-.09,1.25-.14,2.08-.22.19-.02.34-.08.42-.18Z"/>
      </g>
    </g>
  </g>
</svg>