<?xml version="1.0" encoding="UTF-8"?>
<svg id="Layer_2" data-name="Layer 2" xmlns="http://www.w3.org/2000/svg" viewBox="0 0 84.39 56.96">
  <g id="Layer_1-2" data-name="Layer 1">
    <g>
      <path d="M83.43,56.96H.97c-.53,0-.97-.43-.97-.97v-1.81c0-.53.43-.97.97-.97h82.46c.53,0,.97.43.97.97v1.81c0,.53-.43.97-.97.97Z"/>
      <path d="M40.5,53.55v-4.1c0-.53.43-.97.97-.97h1.81c.53,0,.97.43.97.97v4.1c0,.53-.43.97-.97.97h-1.81c-.53,0-.97-.43-.97-.97Z"/>
      <path d="M.97,0h82.46c.53,0,.97.43.97.97v1.81c0,.53-.43.97-.97.97H.97c-.53,0-.97-.43-.97-.97V.97C0,.43.43,0,.97,0Z"/>
      <path d="M44.24,3.42v5.13c0,.53-.43.97-.97.97h-1.81c-.53,0-.97-.43-.97-.97V3.42c0-.53.43-.97.97-.97h1.81c.53,0,.97.43.97.97Z"/>
      <path d="M84.39,54.7c0,.54-.45,1-1,.98-14.54-.53-26.21-12.52-26.21-27.19S68.85,1.82,83.4,1.29c.54-.02,1,.43,1,.98v1.93c0,.52-.42.94-.94.96-12.44.5-22.41,10.77-22.41,23.33s9.97,22.83,22.41,23.33c.52.02.94.43.94.96v1.93Z"/>
      <path d="M0,54.7v-1.93c0-.52.42-.94.94-.96,12.44-.5,22.4-10.77,22.4-23.33S13.38,5.65.94,5.15C.42,5.13,0,4.72,0,4.2v-1.93C0,1.72.45,1.27,1,1.29c14.54.53,26.21,12.52,26.21,27.19S15.54,55.15,1,55.67c-.54.02-1-.43-1-.98Z"/>
      <path d="M49.67,30.97c.16.16.25.37.25.59v10.9c0,.46-.37.84-.84.84h-13.42c-.46,0-.84-.37-.84-.84v-13.73c0-.22.09-.44.25-.59.87-.87,1.48-1.48,2.29-2.29.33-.33.33-.86,0-1.19-.81-.81-1.42-1.42-2.29-2.29-.16-.16-.25-.37-.25-.59v-3.27s0-.51,0-.51v-2.47c0-.46.37-.84.84-.84h13.42c.46,0,.84.37.84.84v9.14c0,.22-.09.44-.25.59-.86.86-1.47,1.47-2.26,2.26-.33.33-.33.86,0,1.19l2.27,2.26ZM39.06,19.34v.68c0,.22.09.43.24.59l4.96,4.95c.53.53,1.43.15,1.43-.59v-5.63c0-.46-.37-.84-.84-.84h-4.96c-.46,0-.84.37-.84.84ZM45.68,38.66v-5.33c0-.22-.09-.43-.24-.59l-4.96-4.96c-.53-.53-1.43-.15-1.43.59v10.28c0,.46.37.84.84.84h4.96c.46,0,.84-.37.84-.84Z"/>
    </g>
  </g>
</svg>