<?xml version="1.0" encoding="UTF-8"?>
<svg fill="#FFFCF2" id="Layer_2" data-name="Layer 2" xmlns="http://www.w3.org/2000/svg" viewBox="0 0 117.79 35.02">
  <g id="Layer_1-2" data-name="Layer 1">
    <g>
      <g>
        <path d="M18.14,10.63c-.3-.1-.54-.28-.7-.54-.16-.26-.24-.58-.24-.96v-3.91c0-.39.08-.75.24-1.07.16-.32.4-.58.7-.78.3-.2.66-.33,1.08-.39,1.83-.28,2.75-.41,4.59-.65.18-.02.32,0,.42.1.1.09.15.22.15.39v.87c0,.17-.05.32-.15.43-.1.11-.24.18-.42.21-1.49.2-2.23.3-3.72.52-.22.03-.39.11-.5.22-.11.11-.17.28-.17.49v2.52c0,.19.06.33.17.42.11.08.27.11.47.08,1.49-.22,2.24-.32,3.74-.52.18-.02.32,0,.42.1.1.09.15.21.15.38v.88c0,.17-.05.31-.15.43-.1.12-.24.19-.42.21-1.83.24-2.74.37-4.57.65-.44.07-.81.05-1.11-.06Z"/>
        <path d="M27.83,9.31c-.31-.11-.54-.3-.7-.57-.16-.27-.23-.59-.23-.96v-3.94c0-.39.08-.74.24-1.05.16-.31.39-.56.69-.74.3-.19.66-.31,1.09-.36,1.47-.17,2.21-.25,3.69-.39.42-.04.78,0,1.08.13.3.13.53.33.69.59.16.27.24.6.24.99v3.94c0,.36-.08.69-.24,1-.16.3-.39.55-.7.73-.31.18-.67.29-1.08.33-1.47.15-2.2.22-3.67.39-.42.05-.79.02-1.1-.1ZM32.25,6.93c.09-.1.13-.27.13-.49v-2.52c0-.22-.05-.38-.15-.47-.1-.09-.26-.12-.48-.1-.8.08-1.19.12-1.99.21-.21.02-.36.09-.47.21-.1.12-.16.28-.16.49v2.52c0,.21.05.36.15.45.1.09.25.12.45.1.83-.09,1.25-.14,2.08-.22.19-.02.34-.08.42-.18Z"/>
        <path d="M38.18,8.3c-.32-.12-.56-.32-.73-.6-.17-.27-.25-.61-.25-1.02V1.45c0-.18.05-.32.15-.43.1-.11.24-.17.41-.18.45-.04.67-.05,1.12-.09.19-.01.33.02.42.11.09.09.14.23.14.41v4.48c0,.23.06.4.17.51.11.11.28.16.5.14.79-.06,1.18-.08,1.97-.13.23-.01.4-.08.5-.2.1-.12.15-.3.15-.54V1.05c0-.18.05-.32.14-.43.09-.1.23-.16.41-.17.45-.03.67-.04,1.12-.06.17,0,.31.03.41.12s.15.23.15.41v5.21c0,.42-.08.78-.25,1.08-.17.3-.41.53-.72.69-.31.16-.68.26-1.12.28-1.43.09-2.14.13-3.56.24-.43.03-.81-.01-1.12-.14Z"/>
        <path d="M47.77,7.81c-.1-.09-.15-.23-.15-.41V.8c0-.19.05-.33.15-.43.1-.1.23-.15.41-.16,2.09-.08,3.13-.12,5.22-.16.41,0,.77.05,1.08.19.31.13.54.34.71.6.16.27.25.59.25.97v1.36c0,.27-.04.52-.12.74-.08.22-.2.41-.35.58-.15.17-.34.29-.55.38-.06.05-.11.09-.14.12-.03.03-.04.07-.05.11,0,.02,0,.04,0,.06,0,.02.01.03.03.04,0,0,0,.02,0,.03,0,.01,0,.03.02.04.35.73.53,1.09.88,1.82.01.03.02.05.02.06,0,.01,0,.02.02.03.01.04.02.08.03.11,0,.03,0,.07,0,.1,0,.1-.04.19-.12.26-.08.07-.2.11-.35.11-.49,0-.73.01-1.21.02-.15,0-.28-.03-.39-.09-.11-.06-.21-.16-.28-.3-.41-.76-.62-1.14-1.04-1.9-.03-.06-.08-.11-.14-.14-.06-.03-.12-.05-.19-.05-.54.01-.8.02-1.34.04-.08,0-.15.03-.2.08-.05.05-.07.13-.07.23v1.66c0,.18-.05.32-.14.42-.09.1-.23.15-.42.16-.46.02-.68.02-1.14.04-.17,0-.31-.04-.41-.13ZM52.93,3.23c.07-.03.13-.08.16-.15.03-.07.05-.16.05-.26v-.33c0-.1-.02-.18-.05-.24-.03-.06-.09-.11-.16-.15-.07-.04-.17-.05-.28-.05-.99.02-1.48.04-2.47.07-.09,0-.16.03-.21.09-.05.05-.08.12-.08.21v.67c0,.09.03.16.08.21.05.05.12.07.21.07.99-.03,1.48-.05,2.47-.07.12,0,.21-.02.29-.05Z"/>
        <path d="M60.64,7.58c-.1-.1-.15-.24-.15-.42,0-1.95,0-2.93,0-4.88,0-.08-.03-.15-.08-.2-.05-.05-.12-.08-.21-.08-.71,0-1.06,0-1.77,0-.19,0-.33-.05-.43-.14-.1-.1-.15-.23-.15-.41v-.88c0-.18.05-.32.15-.42.1-.1.24-.15.43-.15,2.58,0,3.87,0,6.46.07.2,0,.34.06.43.16.09.1.14.24.14.42,0,.35,0,.53,0,.88,0,.17-.05.31-.14.4-.09.09-.24.14-.43.14-.74-.02-1.1-.02-1.84-.04-.09,0-.16.02-.21.08-.05.05-.07.12-.07.2,0,1.95,0,2.93,0,4.88,0,.18-.05.32-.14.42-.09.1-.24.14-.42.14-.46,0-.68,0-1.14-.01-.18,0-.32-.05-.42-.15Z"/>
        <path d="M68.22,7.74c-.1-.1-.15-.24-.15-.42,0-.33,0-.5,0-.83,0-.19.05-.33.15-.42.1-.09.24-.13.42-.13,1.68.06,2.52.1,4.2.19.12,0,.21-.02.27-.09.06-.07.09-.15.09-.26v-.13c0-.07-.02-.13-.06-.18-.04-.05-.09-.08-.14-.1-.02,0-.03-.01-.04-.02-1.43-.28-2.15-.42-3.58-.69-.03,0-.07-.02-.11-.03-.45-.09-.78-.27-1.01-.52-.23-.25-.35-.61-.35-1.09s0-.72,0-1.2c0-.37.07-.68.21-.92.14-.25.35-.43.62-.54.27-.11.61-.17,1.01-.15,1.98.08,2.97.13,4.95.25.19.01.33.07.42.17.09.1.14.24.14.43,0,.33,0,.5,0,.83,0,.19-.05.33-.14.41-.09.09-.24.13-.43.11-1.6-.09-2.4-.14-3.99-.21-.12,0-.21.02-.27.08-.06.06-.09.14-.09.25v.17s.02.1.05.16c.03.06.1.1.21.12,1.46.28,2.18.42,3.64.72.43.11.76.3,1,.58.24.28.37.65.37,1.12s0,.71,0,1.18c0,.33-.07.62-.22.86-.15.24-.36.42-.65.53-.29.11-.61.16-.97.14-2.05-.11-3.08-.16-5.13-.24-.17,0-.31-.06-.41-.16Z"/>
        <path d="M78.34,8.28c-.1-.1-.15-.25-.15-.43,0-2.64,0-3.96,0-6.59,0-.18.05-.32.15-.41.1-.09.24-.13.41-.12.45.03.68.05,1.13.09.19.02.33.08.43.18.1.11.15.25.15.43,0,2.64,0,3.96,0,6.59,0,.18-.05.32-.15.41-.1.09-.24.13-.43.11-.45-.04-.68-.05-1.13-.09-.17-.01-.31-.07-.41-.18Z"/>
        <path d="M83.28,8.69c-.1-.11-.15-.25-.15-.43,0-2.64,0-3.96,0-6.59,0-.19.05-.32.15-.41.1-.08.23-.12.41-.1,2.09.19,3.13.3,5.21.54.43.05.79.17,1.09.36.3.19.53.44.68.76.16.32.23.68.23,1.09,0,1.51,0,2.27,0,3.78,0,.42-.08.77-.23,1.05-.16.28-.39.47-.69.59-.3.11-.67.15-1.11.1-2.07-.24-3.11-.34-5.19-.54-.17-.02-.31-.08-.41-.18ZM88.52,7.24c.09-.08.14-.23.14-.44,0-1.02,0-1.53,0-2.56,0-.2-.05-.35-.15-.46-.1-.11-.26-.17-.48-.19-.94-.1-1.41-.15-2.36-.25-.09,0-.16.01-.21.06-.05.05-.07.11-.07.2v3.17c0,.09.02.16.07.22.05.05.12.08.21.09.95.1,1.43.15,2.39.25.21.02.36,0,.45-.08Z"/>
        <path d="M93.64,9.84c-.1-.12-.15-.26-.15-.43,0-2.64,0-3.95,0-6.59,0-.17.05-.3.15-.39.1-.09.23-.12.4-.1,2.4.32,3.59.49,5.98.87.17.03.3.1.4.22.1.12.16.26.16.43,0,.33,0,.5,0,.83,0,.17-.05.3-.16.39-.1.08-.24.11-.4.09-1.6-.25-2.4-.37-4-.59-.08-.01-.15,0-.2.05-.05.05-.07.11-.07.18v.4c0,.09.02.16.07.22.05.06.11.09.2.1,1.29.18,1.94.28,3.23.47.17.03.3.1.4.21.1.12.15.26.15.42v.69c0,.19-.05.32-.15.4-.1.08-.23.11-.4.08-1.29-.2-1.94-.29-3.23-.47-.08-.01-.15,0-.2.05-.05.05-.07.11-.07.19v.49c0,.09.02.16.07.21.05.05.11.08.2.1,1.6.22,2.4.34,4,.59.17.03.3.1.4.21.1.12.16.26.16.43,0,.34,0,.51,0,.84,0,.17-.05.29-.16.38-.1.09-.24.12-.4.09-2.39-.37-3.59-.55-5.98-.87-.17-.02-.3-.09-.4-.21Z"/>
      </g>
      <g>
        <g>
          <path d="M74.01,19.72c0,2.86,0,4.29,0,7.15,0,.37.3.67.66.69.34.01.5.02.84.04.37.02.66.33.66.69,0,.7,0,1.06,0,1.76,0,.37-.3.65-.66.63-.6-.03-.9-.04-1.5-.06-1.37-.06-2.06-.08-3.44-.12-.6-.02-.9-.03-1.5-.04-.37,0-.66-.31-.66-.68,0-.7,0-1.06,0-1.76,0-.37.3-.65.66-.64.34,0,.5.01.84.02.37.01.66-.28.66-.64,0-2.86,0-4.29,0-7.15,0-.37-.3-.67-.66-.68-.34,0-.5-.01-.84-.02-.37,0-.66-.31-.66-.68v-1.78c0-.37.3-.65.66-.64.6.02.9.02,1.5.04,1.38.04,2.06.07,3.44.12.6.02.9.04,1.5.06.37.02.66.33.66.69,0,.71,0,1.07,0,1.78,0,.37-.3.65-.66.63-.34-.01-.5-.02-.84-.04-.37-.02-.66.27-.66.63Z"/>
          <path d="M89.92,16.93c.44.04.76.49.63.9-1.66,5.38-2.49,8.08-4.15,13.48-.12,0-.18-.01-.3-.02-1.13-.08-1.7-.12-2.84-.19-.12,0-.18-.01-.3-.02-1.66-5.63-2.49-8.44-4.15-14.05-.13-.43.19-.84.64-.82.82.04,1.22.07,2.04.12.3.02.56.23.64.52.77,2.78,1.15,4.17,1.91,6.96.18.66,1.1.72,1.28.09.77-2.68,1.15-4.02,1.91-6.69.08-.28.34-.46.64-.43.82.06,1.22.1,2.04.16Z"/>
          <path d="M93.86,31.94c-.37-.03-.66-.36-.66-.72,0-.97,0-1.45,0-2.42,0-3.39,0-5.09,0-8.48,0-.98,0-1.46,0-2.44,0-.37.3-.63.66-.6,1.11.1,1.66.16,2.77.27,2.1.21,3.14.32,5.24.57.29.03.55.26.63.55.2.73.31,1.1.51,1.84.12.44-.19.82-.63.77-2.04-.24-3.05-.35-5.09-.56-.37-.04-.66.23-.66.59,0,.55,0,.82,0,1.37,0,.37.3.69.66.73.93.1,1.4.14,2.33.25.36.04.66.37.66.73v1.76c0,.37-.3.63-.66.59-.93-.1-1.4-.15-2.33-.25-.37-.04-.66.23-.66.59v1.38c0,.37.3.69.66.73,2.04.21,3.05.32,5.09.56.44.05.76.51.63.92-.2.68-.31,1.02-.51,1.7-.08.27-.34.44-.63.4-2.09-.24-3.14-.35-5.24-.57h0c-1.11-.11-1.66-.16-2.77-.27Z"/>
          <path d="M117.79,29.07c0,2.09,0,3.13,0,5.21,0,.37-.29.61-.66.56-4.04-.63-6.07-.92-10.12-1.44-.29-.04-.55-.27-.63-.56-.2-.73-.31-1.1-.51-1.83-.12-.44.19-.82.63-.77,2.98.38,4.47.59,7.44,1.02.24.04.44-.13.44-.38v-.6c0-.18-.11-.35-.27-.45-2.03-1.17-3.04-1.74-5.08-2.88-1.21-.68-1.81-1.01-3.02-1.68-.24-.13-.4-.39-.4-.66v-5.41c0-.37.3-.62.66-.58,4.06.51,6.08.8,10.13,1.43.29.05.55.28.63.58.2.74.31,1.11.51,1.86.12.44-.19.81-.63.75-2.97-.46-4.46-.68-7.44-1.08-.24-.03-.44.14-.44.38v.63c0,.27.16.53.4.66,1.98,1.11,2.97,1.67,4.94,2.81,1.2.69,1.81,1.04,3.01,1.75.24.14.4.41.4.67Z"/>
        </g>
        <g>
          <path d="M3.41,23.52v7.15c0,.37.29.62.66.56,3.98-.59,5.98-.85,9.98-1.33.44-.05.76.33.63.77-.2.73-.31,1.09-.51,1.82-.08.29-.34.52-.63.55-4.05.49-6.08.77-10.12,1.37-1.1.16-1.65.25-2.75.42-.36.06-.66-.19-.66-.56v-13.34c0-.37.29-.71.66-.77,1.1-.17,1.65-.26,2.75-.42,4.04-.6,6.07-.88,10.12-1.37.29-.04.55.13.63.4.2.69.31,1.03.51,1.72.12.41-.2.87-.63.92-4,.48-5.99.75-9.98,1.33-.36.05-.66.39-.66.76Z"/>
          <path d="M32.14,19.7v1.42c0,.18-.07.35-.2.49-.71.76-1.21,1.29-1.87,2.01-.26.28-.26.7,0,.94.66.61,1.16,1.07,1.87,1.73.12.12.2.28.2.46,0,1.54,0,2.31,0,3.86,0,.37-.3.68-.66.71-.84.06-1.26.09-2.11.16-.37.03-.66-.24-.66-.61,0-1.79,0-2.68,0-4.46,0-.37-.3-.64-.66-.61-2.68.22-4.02.34-6.69.61-.37.04-.66.36-.66.73v4.46c0,.37-.3.69-.66.73-.84.09-1.26.13-2.1.22-.36.04-.66-.22-.66-.59,0-4.36,0-6.54,0-10.9,0-.98,0-1.46,0-2.44,0-.37.3-.69.66-.73,1.11-.12,1.66-.18,2.76-.29,4.31-.44,6.47-.63,10.78-.94.37-.03.66.25.66.61,0,.98,0,1.46,0,2.44ZM28.05,20.02c-2.68.22-4.02.34-6.69.61-.37.04-.66.36-.66.73v1.36c0,.37.3.63.66.59,2.67-.27,4.01-.39,6.69-.61.37-.03.66-.35.66-.72v-1.36c0-.37-.3-.64-.66-.61Z"/>
          <path d="M35.85,31.02c-.37.02-.66-.25-.66-.62v-2.42c0-3.39,0-5.09,0-8.48v-2.44c0-.37.3-.68.66-.7,1.11-.07,1.66-.1,2.77-.16,3.87-.21,5.81-.29,9.68-.4.3,0,.56.18.64.46.21.71.31,1.06.51,1.76.12.42-.2.85-.64.86-3.81.1-5.72.18-9.53.38-.37.02-.66.33-.66.7v1.37c0,.37.3.65.66.63,2.7-.14,4.05-.2,6.76-.29.37-.01.66.27.66.64v1.76c0,.37-.3.67-.66.68-2.7.09-4.06.15-6.76.29-.37.02-.66.33-.66.7v1.38c0,.37.3.65.66.63,3.81-.2,5.72-.27,9.53-.38.44-.01.76.4.64.83-.21.71-.31,1.06-.51,1.77-.08.29-.34.49-.64.49-3.87.11-5.81.19-9.68.4.31-.02.46-.02.77-.04-1.42.07-2.12.11-3.54.2Z"/>
        </g>
        <path d="M64.98,25.01c.13.13.2.3.2.48v8.86c0,.37-.3.68-.68.68h-10.9c-.37,0-.68-.3-.68-.68v-11.15c0-.18.07-.36.2-.48.71-.71,1.2-1.2,1.86-1.86.26-.26.26-.7,0-.97-.66-.66-1.15-1.15-1.86-1.86-.13-.13-.2-.3-.2-.48v-2.66s0-.41,0-.41v-2c0-.37.3-.68.68-.68h10.9c.37,0,.68.3.68.68v7.42c0,.18-.07.36-.2.48-.7.7-1.19,1.19-1.84,1.84-.26.26-.27.7,0,.96l1.84,1.83ZM56.36,15.56v.55c0,.18.07.35.2.48l4.03,4.02c.43.43,1.16.12,1.16-.48v-4.58c0-.37-.3-.68-.68-.68h-4.03c-.37,0-.68.3-.68.68ZM61.74,31.25v-4.33c0-.18-.07-.35-.2-.48l-4.03-4.03c-.43-.43-1.16-.12-1.16.48v8.35c0,.37.3.68.68.68h4.03c.37,0,.68-.3.68-.68Z"/>
      </g>
    </g>
  </g>
</svg>